<?xml version="1.0" encoding="utf-8"?>
<!-- Generator: Adobe Illustrator 17.1.0, SVG Export Plug-In . SVG Version: 6.00 Build 0)  -->
<!DOCTYPE svg PUBLIC "-//W3C//DTD SVG 1.1//EN" "http://www.w3.org/Graphics/SVG/1.1/DTD/svg11.dtd">
<svg version="1.1" xmlns="http://www.w3.org/2000/svg" xmlns:xlink="http://www.w3.org/1999/xlink" x="0px" y="0px"
	 viewBox="0 0 60 60" enable-background="new 0 0 60 60" xml:space="preserve">
<g id="pinterest" display="none">
	<g display="inline">
		<defs>
			<rect id="SVGID_1_" y="0" width="60" height="60.001"/>
		</defs>
		<clipPath id="SVGID_2_">
			<use xlink:href="#SVGID_1_"  overflow="visible"/>
		</clipPath>
		<path clip-path="url(#SVGID_2_)" fill="#FFFFFF" d="M30.001-0.001C13.433-0.001,0,13.431,0,30
			c0,12.284,7.387,22.837,17.958,27.477c-0.085-2.095-0.015-4.609,0.522-6.889c0.577-2.435,3.86-16.347,3.86-16.347
			s-0.958-1.915-0.958-4.747c0-4.445,2.577-7.766,5.785-7.766c2.729,0,4.047,2.05,4.047,4.504c0,2.744-1.749,6.847-2.649,10.647
			c-0.751,3.182,1.596,5.778,4.735,5.778c5.684,0,9.513-7.3,9.513-15.95c0-6.575-4.429-11.497-12.484-11.497
			c-9.1,0-14.769,6.787-14.769,14.367c0,2.614,0.77,4.457,1.977,5.884c0.555,0.656,0.633,0.92,0.431,1.672
			c-0.143,0.552-0.474,1.881-0.611,2.408c-0.2,0.76-0.815,1.031-1.502,0.751c-4.191-1.711-6.144-6.302-6.144-11.461
			c0-8.522,7.188-18.741,21.442-18.741c11.454,0,18.992,8.288,18.992,17.185c0,11.769-6.543,20.561-16.187,20.561
			c-3.239,0-6.286-1.751-7.329-3.739c0,0-1.742,6.912-2.111,8.247c-0.636,2.313-1.881,4.624-3.02,6.426
			c2.699,0.797,5.549,1.23,8.503,1.23C46.568,60,60,46.569,60,30S46.568-0.001,30.001-0.001"/>
	</g>
</g>
<g id="twitter">
	<g>
		<defs>
			<rect id="SVGID_3_" width="60" height="60"/>
		</defs>
		<clipPath id="SVGID_4_">
			<use xlink:href="#SVGID_3_"  overflow="visible"/>
		</clipPath>
		<path clip-path="url(#SVGID_4_)" fill="#FFFFFF" d="M46.522,21.843c0.016,0.352,0.024,0.705,0.024,1.061
			c0,10.845-8.254,23.35-23.349,23.35c-4.635,0-8.948-1.359-12.58-3.687c0.642,0.076,1.295,0.114,1.958,0.114
			c3.845,0,7.383-1.312,10.192-3.513c-3.591-0.066-6.622-2.439-7.666-5.699c0.501,0.096,1.015,0.148,1.544,0.148
			c0.748,0,1.361-0.101,2.05-0.288C14.941,32.574,12,29.258,12,25.282v-0.104c1.2,0.615,2.484,0.984,3.829,1.027
			c-2.202-1.471-3.594-3.983-3.594-6.83c0-1.505,0.432-2.914,1.139-4.126c4.047,4.965,10.108,8.232,16.929,8.574
			c-0.14-0.601-0.206-1.227-0.206-1.87c0-4.532,3.678-8.206,8.21-8.206c2.361,0,4.495,0.996,5.992,2.591
			c1.869-0.368,3.627-1.051,5.212-1.991c-0.613,1.916-1.914,3.524-3.607,4.54c1.659-0.199,3.242-0.64,4.713-1.292
			C49.517,19.24,48.126,20.686,46.522,21.843 M0,60h60V0H0V60z"/>
	</g>
</g>
</svg>
